# xmcd CD database file
#
# Track frame offsets:
#	150
#	18567
#	42257
#	59470
#
# Disc length: 1254 seconds
#
# Revision: 1
# Processed by: cddbd v1.5.1PL0 Copyright (c) Steve Scherf et al.
# Submitted via: CDex 1.50beta10
#
DISCID=2f04e404
DTITLE=CHERYL LYNN - GOOD TIME
DYEAR=1995
DGENRE=
TTITLE0=GOOD TIME(TEDDY'S ORIGINAL 7" EDIT)
TTITLE1=GOOD TIME(ALBUM VERSION)
TTITLE2=GOOD TIME(JUNIOR'S 7" VERSION)
TTITLE3=GOOD TIME(JUNIOR'S CLUB X-TENDED)
EXTD=YEAR: 1995
EXTT0=
EXTT1=
EXTT2=
EXTT3=
PLAYORDER=
